<svg width="39" height="39" viewBox="0 0 39 39" fill="none" xmlns="http://www.w3.org/2000/svg">
<g clip-path="url(#clip0_286_7272)">
<path d="M37.8574 6.85547C38.4884 6.85547 39 6.3439 39 5.71289V1.14258C39 0.51157 38.4884 0 37.8574 0H24.1465C23.5155 0 23.0039 0.51157 23.0039 1.14258V5.71289C23.0039 6.3439 23.5155 6.85547 24.1465 6.85547H27.5742V9.14062H18.2812V3.42773C18.2812 2.79673 17.7697 2.28516 17.1387 2.28516H7.99805C7.36704 2.28516 6.85547 2.79673 6.85547 3.42773V9.14062H3.42773C1.53768 9.14062 0 10.6783 0 12.5684C0 13.8236 0 34.3225 0 35.5723C0 37.4623 1.53768 39 3.42773 39H35.5723C37.4623 39 39 37.4623 39 35.5723C39 34.3221 39 13.8233 39 12.5684C39 10.6783 37.4623 9.14062 35.5723 9.14062H34.4297V6.85547H37.8574ZM9.14062 4.57031H11.4258V5.71289C11.4258 6.3439 11.9374 6.85547 12.5684 6.85547C13.1994 6.85547 13.7109 6.3439 13.7109 5.71289V4.57031H15.9961V13.7109H9.14062V4.57031ZM36.7148 35.5723C36.7148 36.2023 36.2023 36.7148 35.5723 36.7148H3.42773C2.79772 36.7148 2.28516 36.2023 2.28516 35.5723V29.8594H36.7148V35.5723ZM35.5723 11.4258C36.2023 11.4258 36.7148 11.9383 36.7148 12.5684V27.5742H2.28516V12.5684C2.28516 11.9383 2.79772 11.4258 3.42773 11.4258H6.85547V13.7109H5.71289C5.08188 13.7109 4.57031 14.2225 4.57031 14.8535C4.57031 15.4845 5.08188 15.9961 5.71289 15.9961C6.25729 15.9961 18.8793 15.9961 19.4238 15.9961C20.0548 15.9961 20.5664 15.4845 20.5664 14.8535C20.5664 14.2225 20.0548 13.7109 19.4238 13.7109H18.2812V11.4258C18.99 11.4258 34.7738 11.4258 35.5723 11.4258ZM29.8594 9.14062V6.85547H32.1445V9.14062H29.8594ZM25.2891 4.57031V2.28516H36.7148V4.57031C35.5758 4.57031 26.409 4.57031 25.2891 4.57031Z" fill="white"/>
<path d="M10.2832 18.2812H7.99805C7.36704 18.2812 6.85547 18.7928 6.85547 19.4238C6.85547 20.0548 7.36704 20.5664 7.99805 20.5664H10.2832C10.9142 20.5664 11.4258 20.0548 11.4258 19.4238C11.4258 18.7928 10.9142 18.2812 10.2832 18.2812Z" fill="white"/>
<path d="M10.2832 22.8516H7.99805C7.36704 22.8516 6.85547 23.3631 6.85547 23.9941C6.85547 24.6251 7.36704 25.1367 7.99805 25.1367H10.2832C10.9142 25.1367 11.4258 24.6251 11.4258 23.9941C11.4258 23.3631 10.9142 22.8516 10.2832 22.8516Z" fill="white"/>
<path d="M17.1387 18.2812H14.8535C14.2225 18.2812 13.7109 18.7928 13.7109 19.4238C13.7109 20.0548 14.2225 20.5664 14.8535 20.5664H17.1387C17.7697 20.5664 18.2812 20.0548 18.2812 19.4238C18.2812 18.7928 17.7697 18.2812 17.1387 18.2812Z" fill="white"/>
<path d="M17.1387 22.8516H14.8535C14.2225 22.8516 13.7109 23.3631 13.7109 23.9941C13.7109 24.6251 14.2225 25.1367 14.8535 25.1367H17.1387C17.7697 25.1367 18.2812 24.6251 18.2812 23.9941C18.2812 23.3631 17.7697 22.8516 17.1387 22.8516Z" fill="white"/>
<path d="M26.4316 22.8516H24.1465C23.5155 22.8516 23.0039 23.3631 23.0039 23.9941C23.0039 24.6251 23.5155 25.1367 24.1465 25.1367H26.4316C27.0626 25.1367 27.5742 24.6251 27.5742 23.9941C27.5742 23.3631 27.0626 22.8516 26.4316 22.8516Z" fill="white"/>
<path d="M33.2871 22.8516H31.002C30.3709 22.8516 29.8594 23.3631 29.8594 23.9941C29.8594 24.6251 30.3709 25.1367 31.002 25.1367H33.2871C33.9181 25.1367 34.4297 24.6251 34.4297 23.9941C34.4297 23.3631 33.9181 22.8516 33.2871 22.8516Z" fill="white"/>
<path d="M33.2871 13.7109H24.1465C23.5155 13.7109 23.0039 14.2225 23.0039 14.8535V19.4238C23.0039 20.0548 23.5155 20.5664 24.1465 20.5664H33.2871C33.9181 20.5664 34.4297 20.0548 34.4297 19.4238V14.8535C34.4297 14.2225 33.9181 13.7109 33.2871 13.7109ZM32.1445 18.2812H25.2891V15.9961H32.1445V18.2812Z" fill="white"/>
<path d="M21.709 32.1445H17.1387C16.5077 32.1445 15.9961 32.6561 15.9961 33.2871C15.9961 33.9181 16.5077 34.4297 17.1387 34.4297H21.709C22.34 34.4297 22.8516 33.9181 22.8516 33.2871C22.8516 32.6561 22.34 32.1445 21.709 32.1445Z" fill="white"/>
</g>
<defs>
<clipPath id="clip0_286_7272">
<rect width="39" height="39" fill="white"/>
</clipPath>
</defs>
</svg>
