<svg width="299" height="74" viewBox="0 0 299 74" fill="none" xmlns="http://www.w3.org/2000/svg">
<path d="M20.0935 69.7944C16.5272 69.747 13.5623 69.3088 11.1954 68.4831C7.31667 67.1066 4.5217 65.0313 2.81046 62.2573C1.09581 59.4865 0.274907 55.6123 0.340877 50.6445L0.509795 37.9244C0.596902 31.3649 2.38056 26.4031 5.85744 23.0354C9.33428 19.6711 13.7819 18.0233 19.197 18.0952C23.4873 18.1522 27.8982 19.2721 32.4264 21.4515L30.371 27.0891C26.6254 25.5826 23.2709 24.8079 20.2973 24.7685C16.5358 24.7185 13.5007 25.7564 11.1923 27.8788C8.88722 30.0013 7.70317 33.1831 7.64684 37.4243L7.45549 51.8341C7.40356 55.7441 8.63553 58.5929 11.1548 60.3806C13.6739 62.1717 16.912 63.0901 20.8757 63.1427C23.9772 63.1839 27.1518 62.7968 30.3995 61.978L31.9988 68.3605C27.8898 69.3639 23.9224 69.8452 20.0935 69.7944Z" fill="black"/>
<path d="M57.822 70.3929C50.8916 70.3008 45.3926 68.9367 41.3353 66.2971C37.2747 63.6608 35.2926 58.9599 35.3823 52.2044L35.4919 43.9553C35.579 37.3958 37.9139 33.0226 42.5002 30.8291C44.6931 29.8002 47.374 29.3018 50.5429 29.3439C53.4491 29.3825 56.3797 29.8676 59.338 30.8026C62.2963 31.7375 64.7226 32.9122 66.6203 34.33C66.7109 27.5069 62.1022 24.0319 52.7943 23.9083L53.3593 18.6463C59.697 18.7305 64.3544 19.803 67.3315 21.8638C70.3085 23.9246 72.1254 26.3519 72.7822 29.1424C73.439 31.9328 73.7383 35.5162 73.6802 39.8892L73.287 69.5031C66.1481 70.1384 60.9909 70.435 57.822 70.3929ZM58.9506 37.6555C56.191 36.7231 53.6544 36.2433 51.3442 36.2126C45.5992 36.1363 42.6922 38.9471 42.6165 44.6448L42.5135 52.3972C42.4132 59.9502 47.5121 63.7934 57.8135 63.9302C59.8576 63.9573 62.6693 63.7614 66.2417 63.3458L66.5413 40.7848C64.2461 39.6287 61.717 38.5845 58.9574 37.6522L58.9506 37.6555Z" fill="black"/>
<path d="M88.1365 62.4979C90.2973 63.8853 92.8645 64.5988 95.8347 64.6383C98.5422 64.6742 100.942 64.0605 103.04 62.7938C105.135 61.5304 106.201 59.6045 106.236 57.0226C106.259 55.2349 105.767 53.7378 104.759 52.5312C103.752 51.3247 102.478 50.3648 100.934 49.648C99.3912 48.9312 97.2737 48.0919 94.5785 47.13C91.3572 45.9616 88.7775 44.9168 86.843 43.9954C84.9051 43.0739 83.2083 41.7433 81.7461 40.0001C80.2839 38.2569 79.4041 36.0279 79.1102 33.3065L79.0283 32.1122C79.0574 29.9257 79.6953 27.798 80.9454 25.7258C82.1956 23.6535 84.0973 21.9752 86.6575 20.6809C89.2176 19.3899 92.4121 18.7699 96.241 18.8207C98.3525 18.8488 100.215 19.0898 101.829 19.5405C103.44 19.9945 104.704 20.4575 105.624 20.9328C106.54 21.408 107.099 21.7162 107.296 21.8507L104.936 28.0825C104.739 27.9481 104.298 27.6752 103.61 27.2706C102.921 26.8626 101.919 26.4707 100.604 26.0882C99.2887 25.7057 97.806 25.5035 96.1559 25.4816C93.051 25.4404 90.6003 26.1041 88.8004 27.4728C87.0004 28.8414 86.2143 30.7171 86.4487 33.1065C86.6236 34.8968 87.5781 36.319 89.3123 37.3695C91.0464 38.4201 93.6916 39.5976 97.2378 40.9055C100.721 42.1449 103.561 43.325 105.759 44.4494C107.957 45.5703 109.816 47.1532 111.341 49.1947C112.864 51.2361 113.606 53.8824 113.563 57.1267C113.509 61.236 111.978 64.6431 108.972 67.3545C105.965 70.0625 101.555 71.3796 95.7462 71.3025C91.9812 71.2525 88.7401 70.5639 86.0161 69.2331C83.292 67.9058 81.2369 66.1716 79.8439 64.0338C78.4509 61.896 77.7076 59.5337 77.6106 56.9467L84.5484 56.7414C84.7785 59.1983 85.9757 61.1172 88.1364 62.5046L88.1365 62.4979Z" fill="black"/>
<path d="M149.783 37.5237C149.835 33.6137 148.815 30.7846 146.726 29.0331C144.634 27.2815 141.941 26.3838 138.641 26.34C136.725 26.3145 134.775 26.5557 132.788 27.0566C130.801 27.5608 129.074 28.2342 127.611 29.0767L127.065 70.2211L119.936 70.1265L120.859 0.561035L127.989 0.655707L127.7 22.4192C129.098 21.5759 130.838 20.9196 132.926 20.4505C135.014 19.9813 137.179 19.7599 139.422 19.7897C143.187 19.8397 146.281 20.4757 148.706 21.7011C151.331 22.9291 153.371 24.7442 154.825 27.1498C156.278 29.5554 156.982 32.5797 156.934 36.2227L156.477 70.6084L149.348 70.5137L149.786 37.5204L149.783 37.5237Z" fill="black"/>
<path d="M168.093 1.18848L175.222 1.28315L174.298 70.8486L167.169 70.7539L168.093 1.18848Z" fill="black"/>
<path d="M207.769 71.2927C204.721 72.0465 201.678 72.405 198.644 72.3647C193.758 72.2998 189.894 71.0384 187.057 68.584C184.217 66.1296 182.83 62.4811 182.894 57.6451L183.165 37.2706C183.236 31.904 184.959 27.7526 188.332 24.8162C191.706 21.8798 196.13 20.448 201.613 20.5208C207.095 20.5936 211.349 22.1271 214.378 25.1147C217.41 28.1058 218.891 32.2153 218.821 37.45L218.641 51.0657L190.101 52.1773L190.032 57.3444C189.995 60.1257 190.823 62.2255 192.522 63.6407C194.221 65.0558 196.555 65.7831 199.526 65.8225C203.816 65.8795 208.423 64.6157 213.345 62.0311L215.941 67.9299C213.543 69.4225 210.82 70.5457 207.776 71.2996L207.769 71.2927ZM208.423 29.406C206.264 27.8868 203.93 27.1088 201.421 27.0755C198.118 27.0316 195.449 27.8919 193.414 29.6529C191.377 31.4139 190.335 34.0196 190.289 37.4632L190.184 45.415L211.492 44.6062L211.593 36.9552C211.64 33.4439 210.582 30.9287 208.423 29.4094L208.423 29.406Z" fill="black"/>
<path d="M233.515 64.4285C235.676 65.816 238.243 66.5295 241.214 66.5689C243.921 66.6049 246.321 65.9911 248.419 64.7245C250.514 63.4611 251.58 61.5352 251.615 58.9533C251.638 57.1656 251.146 55.6684 250.138 54.4619C249.13 53.2554 247.857 52.2954 246.313 51.5786C244.77 50.8619 242.653 50.0225 239.957 49.0606C236.736 47.8923 234.156 46.8474 232.222 45.926C230.284 45.0046 228.587 43.674 227.125 41.9308C225.663 40.1875 224.783 37.9586 224.489 35.2371L224.407 34.0429C224.436 31.8564 225.074 29.7287 226.324 27.6564C227.574 25.5842 229.476 23.9059 232.036 22.6116C234.596 21.3206 237.791 20.7005 241.62 20.7514C243.731 20.7794 245.594 21.0205 247.208 21.4712C248.819 21.9252 250.083 22.3881 251.003 22.8634C251.919 23.3387 252.477 23.6469 252.674 23.7813L250.315 30.0132C250.118 29.8787 249.677 29.6059 248.988 29.2013C248.3 28.7933 247.298 28.4014 245.983 28.0189C244.668 27.6364 243.185 27.4342 241.535 27.4123C238.43 27.371 235.979 28.0348 234.179 29.4034C232.379 30.7721 231.593 32.6477 231.828 35.0371C232.003 36.8275 232.957 38.2496 234.691 39.3002C236.425 40.3507 239.071 41.5283 242.617 42.8361C246.1 44.0755 248.94 45.2557 251.138 46.38C253.336 47.501 255.195 49.0838 256.72 51.1253C258.242 53.1668 258.985 55.8131 258.942 59.0573C258.888 63.1667 257.357 66.5737 254.35 69.2851C251.344 71.9932 246.934 73.3103 241.125 73.2331C237.36 73.1831 234.119 72.4945 231.395 71.1638C228.671 69.8365 226.616 68.1022 225.223 65.9645C223.83 63.8267 223.087 61.4643 222.99 58.8773L229.927 58.672C230.157 61.129 231.355 63.0478 233.515 64.4353L233.515 64.4285Z" fill="black"/>
<path d="M273.225 64.9559C275.386 66.3433 277.953 67.0568 280.924 67.0963C283.631 67.1322 286.031 66.5185 288.129 65.2518C290.224 63.9885 291.29 62.0625 291.325 59.4806C291.348 57.6929 290.856 56.1958 289.848 54.9893C288.84 53.7827 287.566 52.8228 286.023 52.106C284.48 51.3892 282.363 50.5499 279.667 49.588C276.446 48.4196 273.866 47.3748 271.932 46.4534C269.994 45.5319 268.297 44.2013 266.835 42.4581C265.373 40.7149 264.493 38.4859 264.199 35.7645L264.117 34.5702C264.146 32.3837 264.784 30.256 266.034 28.1838C267.284 26.1115 269.186 24.4333 271.746 23.1389C274.306 21.8479 277.501 21.2279 281.33 21.2787C283.441 21.3068 285.304 21.5478 286.918 21.9985C288.529 22.4525 289.793 22.9155 290.712 23.3908C291.629 23.866 292.187 24.1742 292.384 24.3087L290.025 30.5405C289.828 30.4061 289.387 30.1332 288.698 29.7286C288.01 29.3206 287.008 28.9288 285.693 28.5462C284.378 28.1637 282.895 27.9615 281.245 27.9396C278.14 27.8984 275.689 28.5621 273.889 29.9308C272.089 31.2995 271.303 33.1751 271.538 35.5645C271.712 37.3548 272.667 38.777 274.401 39.8275C276.135 40.8781 278.78 42.0557 282.327 43.3635C285.81 44.6029 288.65 45.7831 290.848 46.9074C293.046 48.0283 294.905 49.6112 296.43 51.6527C297.952 53.6942 298.695 56.3404 298.652 59.5847C298.598 63.6941 297.067 67.1011 294.06 69.8125C291.054 72.5239 286.644 73.8376 280.835 73.7605C277.07 73.7105 273.829 73.0219 271.105 71.6911C268.381 70.3638 266.326 68.6296 264.933 66.4918C263.54 64.3541 262.796 61.9917 262.699 59.4047L269.637 59.1994C269.867 61.6563 271.065 63.5752 273.225 64.9626L273.225 64.9559Z" fill="black"/>
</svg>
