<svg width="39" height="39" viewBox="0 0 39 39" fill="none" xmlns="http://www.w3.org/2000/svg">
<g clip-path="url(#clip0_286_7300)">
<path d="M35.6249 31.88V18.9873C37.6125 18.0756 39 16.044 39 13.6874C39 13.647 38.9985 13.6071 38.9976 13.5669C39.0119 13.3286 38.95 13.0882 38.8155 12.8829C38.8149 12.882 38.8143 12.8811 38.8137 12.8802L36.1998 8.85855C36.1944 8.85022 36.1891 8.84159 36.1837 8.83326L34.125 5.66647V3.37507C34.125 1.51392 32.6111 0 30.7499 0H8.25007C6.38892 0 4.875 1.51392 4.875 3.37507V5.66647L0.186264 12.8802C0.185669 12.8814 0.185074 12.8826 0.184479 12.8835C0.0532608 13.0837 -0.00743866 13.3164 0.00267791 13.5473C0.00148773 13.594 0 13.6404 0 13.6874C0 16.044 1.38746 18.0756 3.37507 18.9873V31.88C1.49755 31.9779 0 33.5362 0 35.4375C0 37.4019 1.59812 39 3.56252 39H35.4375C37.4019 39 39 37.4019 39 35.4375C39 33.5362 37.5024 31.9779 35.6249 31.88ZM34.1911 17.125C34.1185 17.1452 34.0456 17.1631 33.9724 17.1782C33.9709 17.1785 33.9691 17.1788 33.9676 17.1794C33.8227 17.2095 33.6763 17.2294 33.5293 17.2401C33.5168 17.241 33.5037 17.2419 33.4912 17.2428C33.4213 17.247 33.3514 17.25 33.2812 17.25C33.2258 17.25 33.1708 17.2482 33.116 17.2458C33.0985 17.2449 33.0812 17.2434 33.0637 17.2422C33.0262 17.2398 32.989 17.2372 32.9518 17.2333C32.9318 17.2315 32.9119 17.2291 32.892 17.227C32.8572 17.2229 32.8223 17.2184 32.7878 17.2134C32.7679 17.2104 32.7483 17.2074 32.7286 17.2041C32.6926 17.1982 32.6566 17.1916 32.6209 17.1845C32.6039 17.1812 32.5867 17.1779 32.57 17.1744C32.5197 17.1637 32.4703 17.1521 32.421 17.139C32.4189 17.1384 32.4168 17.1381 32.4147 17.1375C32.3632 17.1238 32.3123 17.1089 32.2621 17.0928C32.2463 17.0878 32.2311 17.0824 32.2156 17.0771C32.1805 17.0658 32.146 17.0539 32.1115 17.0411C32.0937 17.0342 32.0758 17.0274 32.0579 17.0205C32.0261 17.008 31.9943 16.9953 31.9627 16.9819C31.9449 16.9744 31.9273 16.967 31.9098 16.959C31.8767 16.9447 31.8443 16.9292 31.8122 16.9137C31.797 16.9063 31.7818 16.8994 31.7669 16.892C31.7235 16.87 31.6804 16.8477 31.6381 16.8242C31.6348 16.8224 31.6316 16.8206 31.6283 16.8188C31.5825 16.7932 31.5375 16.7664 31.4932 16.7391C31.4801 16.7307 31.467 16.7221 31.4539 16.7138C31.423 16.6938 31.392 16.6739 31.3617 16.6528C31.3462 16.6424 31.331 16.6317 31.3159 16.6206C31.2879 16.601 31.2602 16.5808 31.2326 16.5599C31.2177 16.5486 31.2025 16.5373 31.1876 16.5257C31.1597 16.5037 31.1317 16.4811 31.1043 16.4585C31.0915 16.4478 31.0784 16.4371 31.0656 16.4263C31.0299 16.3957 30.9948 16.3645 30.9603 16.3326C30.9567 16.329 30.9526 16.3258 30.949 16.3222C30.9106 16.2865 30.8734 16.2496 30.8368 16.2124C30.8264 16.2017 30.8163 16.1907 30.8059 16.18C30.78 16.1526 30.7544 16.1252 30.7294 16.0973C30.7169 16.0836 30.7047 16.0693 30.6925 16.0553C30.6702 16.0294 30.6479 16.0029 30.6259 15.9765C30.6137 15.9616 30.6018 15.947 30.5899 15.9318C30.5678 15.9042 30.5461 15.8756 30.525 15.847C30.5146 15.8333 30.5042 15.8196 30.494 15.8057C30.4676 15.7688 30.4417 15.7313 30.4164 15.6935C30.4125 15.6875 30.4083 15.6819 30.4042 15.6759C30.3753 15.6319 30.3474 15.587 30.3203 15.5414C30.3125 15.5286 30.3054 15.5156 30.298 15.5025C30.2789 15.4697 30.2602 15.4367 30.2423 15.4031C30.2331 15.3864 30.2245 15.3692 30.2158 15.3522C30.1998 15.3216 30.1843 15.2909 30.1694 15.2597C30.1608 15.2418 30.1525 15.2237 30.1441 15.2058C30.1292 15.1737 30.115 15.1412 30.101 15.1085C30.0938 15.0916 30.0864 15.0749 30.0796 15.0579C30.0632 15.0172 30.0474 14.9761 30.0322 14.935C30.029 14.9258 30.0254 14.9169 30.0221 14.9077C30.0043 14.8574 29.9873 14.8062 29.9715 14.755C29.9671 14.7399 29.9629 14.7247 29.9585 14.7095C29.9504 14.6815 29.9427 14.6533 29.9352 14.6253H36.6283C36.3057 15.8381 35.3726 16.7947 34.1911 17.125ZM27.4034 14.7547C27.3877 14.8062 27.3707 14.8571 27.3528 14.9077C27.3496 14.9169 27.346 14.9255 27.3427 14.9347C27.3276 14.9761 27.3118 15.0172 27.2954 15.0576C27.2886 15.0749 27.2811 15.0916 27.274 15.1085C27.26 15.1409 27.2457 15.1734 27.2311 15.2055C27.2228 15.2237 27.2142 15.2415 27.2056 15.2594C27.1907 15.2906 27.1752 15.3216 27.1594 15.3522C27.1505 15.3692 27.1419 15.3861 27.1327 15.4031C27.1148 15.4367 27.0961 15.4694 27.077 15.5025C27.0696 15.5153 27.0624 15.5286 27.0547 15.5414C27.0276 15.5867 26.9997 15.6316 26.9708 15.6756C26.9666 15.6816 26.9625 15.6875 26.9586 15.6935C26.9333 15.7313 26.9074 15.7688 26.8809 15.8054C26.8708 15.8194 26.8604 15.833 26.85 15.847C26.8289 15.8756 26.8071 15.9039 26.7851 15.9318C26.7732 15.9467 26.7613 15.9616 26.7491 15.9762C26.7271 16.0029 26.7051 16.0291 26.6825 16.0553C26.6703 16.0693 26.6581 16.0833 26.6456 16.0973C26.6206 16.1252 26.595 16.1526 26.5691 16.1797C26.5587 16.1907 26.5486 16.2017 26.5382 16.2121C26.5016 16.2496 26.4644 16.2865 26.426 16.3222C26.4224 16.3255 26.4183 16.329 26.4147 16.3323C26.3802 16.3645 26.3451 16.3954 26.3093 16.426C26.2966 16.4371 26.2835 16.4475 26.2707 16.4582C26.2433 16.4811 26.2153 16.5034 26.1874 16.5254C26.1725 16.537 26.1573 16.5486 26.1424 16.5599C26.1151 16.5805 26.0874 16.6007 26.0594 16.6206C26.0439 16.6314 26.0288 16.6421 26.0133 16.6528C25.9829 16.6736 25.952 16.6938 25.9211 16.7138C25.908 16.7221 25.8952 16.7307 25.8818 16.7388C25.8374 16.7664 25.7925 16.7932 25.7467 16.8188C25.7434 16.8206 25.7401 16.8221 25.7369 16.8239C25.6946 16.8474 25.6515 16.87 25.608 16.8917C25.5932 16.8991 25.578 16.9063 25.5628 16.9134C25.5307 16.9292 25.4982 16.9444 25.4652 16.959C25.4477 16.9667 25.4301 16.9741 25.4122 16.9819C25.3807 16.995 25.3492 17.0078 25.317 17.0202C25.2992 17.0274 25.2813 17.0342 25.2635 17.0408C25.229 17.0536 25.1944 17.0655 25.1596 17.0771C25.1439 17.0821 25.1287 17.0878 25.1129 17.0926C25.0626 17.1086 25.0117 17.1235 24.9603 17.1372C24.9582 17.1378 24.9561 17.1384 24.954 17.139C24.9046 17.1518 24.8549 17.1634 24.8053 17.1744C24.7883 17.1779 24.771 17.1809 24.7541 17.1842C24.7184 17.1913 24.6824 17.1982 24.6464 17.2041C24.6267 17.2074 24.6071 17.2104 24.5872 17.2131C24.5526 17.2181 24.5178 17.2226 24.483 17.2267C24.4631 17.2291 24.4434 17.2312 24.4232 17.2333C24.3863 17.2369 24.3488 17.2395 24.3113 17.2419C24.2938 17.2431 24.2765 17.2446 24.259 17.2455C24.2042 17.2482 24.1492 17.2497 24.0938 17.2497C24.0382 17.2497 23.9831 17.2482 23.9284 17.2455C23.9108 17.2446 23.8936 17.2431 23.8763 17.2419C23.8388 17.2395 23.8013 17.2369 23.7641 17.2333C23.7442 17.2312 23.7243 17.2291 23.7046 17.2267C23.6695 17.2226 23.6347 17.2181 23.6002 17.2131C23.5806 17.2101 23.5609 17.2074 23.5413 17.2041C23.505 17.1982 23.4693 17.1913 23.4333 17.1842C23.4163 17.1809 23.3993 17.1779 23.3824 17.1744C23.3324 17.1637 23.2827 17.1518 23.2336 17.139C23.2315 17.1384 23.2294 17.1378 23.2271 17.1372C23.1759 17.1235 23.125 17.1086 23.0744 17.0926C23.059 17.0878 23.0435 17.0821 23.028 17.0771C22.9932 17.0655 22.9584 17.0536 22.9242 17.0408C22.906 17.0342 22.8882 17.0274 22.8703 17.0202C22.8385 17.0078 22.8066 16.995 22.7751 16.9819C22.7575 16.9741 22.7397 16.9667 22.7221 16.959C22.6894 16.9444 22.657 16.9292 22.6245 16.9134C22.6094 16.9063 22.5942 16.8991 22.5793 16.8917C22.5359 16.87 22.493 16.8474 22.4505 16.8239C22.4475 16.8221 22.4439 16.8206 22.4407 16.8188C22.3951 16.7932 22.3502 16.7664 22.3056 16.7388C22.2925 16.7307 22.2797 16.7221 22.2666 16.7138C22.2353 16.6938 22.2047 16.6736 22.174 16.6528C22.1586 16.6421 22.1434 16.6314 22.1282 16.6206C22.1003 16.6007 22.0726 16.5805 22.0452 16.5599C22.03 16.5486 22.0152 16.537 22.0003 16.5254C21.972 16.5034 21.9443 16.4811 21.917 16.4582C21.9039 16.4475 21.8908 16.4371 21.8783 16.426C21.8426 16.3957 21.8075 16.3645 21.773 16.3323C21.7691 16.329 21.7652 16.3255 21.7614 16.3222C21.7233 16.2862 21.6858 16.2496 21.6492 16.2121C21.6388 16.2014 21.6286 16.1904 21.6185 16.1797C21.5926 16.1526 21.5668 16.1252 21.5418 16.0973C21.5296 16.0833 21.5174 16.0693 21.5052 16.0553C21.4826 16.0291 21.4602 16.0029 21.4385 15.9762C21.4263 15.9616 21.4144 15.9467 21.4025 15.9318C21.3802 15.9039 21.3588 15.8756 21.3373 15.847C21.3272 15.833 21.3168 15.8194 21.3067 15.8054C21.2799 15.7688 21.254 15.7313 21.229 15.6935C21.2249 15.6875 21.2207 15.6816 21.2168 15.6756C21.188 15.6316 21.16 15.5867 21.1329 15.5414C21.1252 15.5286 21.1181 15.5153 21.1106 15.5025C21.0913 15.4694 21.0728 15.4364 21.0547 15.4031C21.0458 15.3861 21.0368 15.3692 21.0282 15.3522C21.0124 15.3216 20.997 15.2906 20.9818 15.2594C20.9732 15.2415 20.9648 15.2237 20.9565 15.2055C20.9416 15.1737 20.9273 15.1409 20.9136 15.1085C20.9065 15.0916 20.8991 15.0749 20.8922 15.0576C20.8756 15.0172 20.8598 14.9761 20.8449 14.9347C20.8416 14.9258 20.8378 14.9169 20.8345 14.9077C20.8166 14.8571 20.8 14.8062 20.7842 14.7547C20.7794 14.7396 20.7756 14.7244 20.7711 14.7092C20.7628 14.6815 20.7553 14.6533 20.7479 14.625H27.4397C27.4323 14.6533 27.4246 14.6812 27.4165 14.7092C27.4121 14.7244 27.4079 14.7396 27.4034 14.7547ZM18.2158 14.7547C18.2 14.8062 18.1834 14.8571 18.1655 14.9077C18.1622 14.9169 18.1584 14.9255 18.1551 14.9347C18.1402 14.9761 18.1244 15.0172 18.1078 15.0576C18.1009 15.0749 18.0935 15.0916 18.0864 15.1085C18.0727 15.1409 18.0584 15.1734 18.0435 15.2055C18.0352 15.2237 18.0268 15.2415 18.0182 15.2594C18.003 15.2906 17.9876 15.3216 17.9718 15.3522C17.9632 15.3692 17.9542 15.3861 17.9453 15.4031C17.9272 15.4367 17.9087 15.4694 17.8894 15.5025C17.8819 15.5153 17.8748 15.5286 17.8671 15.5414C17.84 15.5867 17.8123 15.6316 17.7832 15.6756C17.7793 15.6816 17.7751 15.6875 17.771 15.6935C17.746 15.7313 17.7201 15.7688 17.6933 15.8054C17.6835 15.8194 17.6728 15.833 17.6627 15.847C17.6412 15.8756 17.6198 15.9039 17.5975 15.9318C17.5856 15.9467 17.5737 15.9616 17.5615 15.9762C17.5398 16.0029 17.5174 16.0291 17.4948 16.0553C17.4826 16.0693 17.4704 16.0833 17.4582 16.0973C17.4332 16.1252 17.4074 16.1526 17.3815 16.1797C17.3714 16.1907 17.3612 16.2017 17.3508 16.2121C17.3142 16.2496 17.2767 16.2865 17.2386 16.3222C17.2348 16.3255 17.2309 16.329 17.227 16.3323C17.1925 16.3645 17.1574 16.3954 17.1217 16.426C17.1092 16.4371 17.0961 16.4475 17.083 16.4582C17.0557 16.4811 17.028 16.5034 16.9997 16.5254C16.9848 16.537 16.97 16.5486 16.9548 16.5599C16.9274 16.5805 16.8997 16.6007 16.8718 16.6206C16.8566 16.6314 16.8414 16.6421 16.826 16.6528C16.7953 16.6736 16.7647 16.6938 16.7334 16.7138C16.7203 16.7221 16.7075 16.7307 16.6944 16.7388C16.6498 16.7664 16.6049 16.7932 16.5593 16.8188C16.5561 16.8206 16.5525 16.8221 16.5495 16.8239C16.507 16.8474 16.4641 16.87 16.4207 16.8917C16.4058 16.8991 16.3906 16.9063 16.3755 16.9134C16.343 16.9292 16.3106 16.9444 16.2779 16.959C16.2603 16.9667 16.2425 16.9741 16.2249 16.9819C16.1934 16.995 16.1615 17.0078 16.1297 17.0202C16.1118 17.0274 16.094 17.0342 16.0758 17.0408C16.0416 17.0536 16.0068 17.0655 15.972 17.0771C15.9565 17.0821 15.941 17.0878 15.9256 17.0926C15.875 17.1086 15.8241 17.1235 15.7729 17.1372C15.7706 17.1378 15.7685 17.1384 15.7664 17.139C15.7173 17.1518 15.6676 17.1634 15.6176 17.1744C15.6007 17.1779 15.5837 17.1809 15.5667 17.1842C15.5307 17.1913 15.495 17.1982 15.4587 17.2041C15.4391 17.2074 15.4194 17.2104 15.3998 17.2131C15.3653 17.2181 15.3305 17.2226 15.2954 17.2267C15.2757 17.2291 15.2558 17.2312 15.2359 17.2333C15.1987 17.2369 15.1612 17.2395 15.1237 17.2419C15.1064 17.2431 15.0892 17.2446 15.0716 17.2455C15.0169 17.2482 14.9618 17.2497 14.9062 17.2497C14.8508 17.2497 14.7958 17.2482 14.741 17.2455C14.7235 17.2446 14.7062 17.2431 14.6887 17.2419C14.6512 17.2395 14.614 17.2369 14.5768 17.2333C14.5569 17.2312 14.5369 17.2291 14.517 17.2267C14.4822 17.2226 14.4474 17.2181 14.4128 17.2131C14.3929 17.2101 14.3733 17.2074 14.3536 17.2041C14.3176 17.1982 14.2816 17.1913 14.2459 17.1842C14.229 17.1809 14.2117 17.1779 14.1947 17.1744C14.1448 17.1637 14.0951 17.1518 14.046 17.139C14.0439 17.1384 14.0418 17.1378 14.0397 17.1372C13.9883 17.1235 13.9374 17.1086 13.8871 17.0926C13.8713 17.0878 13.8561 17.0821 13.8404 17.0771C13.8056 17.0655 13.771 17.0536 13.7365 17.0408C13.7187 17.0342 13.7008 17.0274 13.683 17.0202C13.6508 17.0078 13.6193 16.995 13.5878 16.9819C13.5699 16.9741 13.5523 16.9667 13.5348 16.959C13.5018 16.9444 13.4693 16.9292 13.4372 16.9134C13.422 16.9063 13.4068 16.8991 13.392 16.8917C13.3485 16.87 13.3054 16.8474 13.2631 16.8239C13.2599 16.8221 13.2566 16.8206 13.2533 16.8188C13.2075 16.7932 13.1626 16.7664 13.1182 16.7388C13.1048 16.7307 13.092 16.7221 13.0789 16.7138C13.048 16.6938 13.0171 16.6736 12.9867 16.6528C12.9712 16.6421 12.9561 16.6314 12.9406 16.6206C12.9126 16.6007 12.8849 16.5805 12.8576 16.5599C12.8427 16.5486 12.8275 16.537 12.8126 16.5254C12.7847 16.5034 12.7567 16.4811 12.7293 16.4582C12.7165 16.4475 12.7034 16.4371 12.6907 16.426C12.6549 16.3957 12.6198 16.3645 12.5853 16.3323C12.5817 16.329 12.5776 16.3255 12.574 16.3222C12.5356 16.2862 12.4984 16.2496 12.4618 16.2121C12.4514 16.2014 12.4413 16.1904 12.4309 16.1797C12.405 16.1526 12.3794 16.1252 12.3544 16.0973C12.3419 16.0833 12.3297 16.0693 12.3175 16.0553C12.2949 16.0291 12.2729 16.0029 12.2509 15.9762C12.2387 15.9616 12.2268 15.9467 12.2149 15.9318C12.1929 15.9039 12.1711 15.8756 12.15 15.847C12.1396 15.833 12.1292 15.8194 12.1191 15.8054C12.0926 15.7688 12.0667 15.7313 12.0414 15.6935C12.0375 15.6875 12.0334 15.6816 12.0292 15.6756C12.0003 15.6316 11.9724 15.5867 11.9453 15.5414C11.9376 15.5286 11.9304 15.5153 11.923 15.5025C11.9039 15.4694 11.8852 15.4364 11.8673 15.4031C11.8581 15.3861 11.8495 15.3692 11.8406 15.3522C11.8248 15.3216 11.8093 15.2906 11.7944 15.2594C11.7858 15.2415 11.7772 15.2237 11.7689 15.2055C11.7543 15.1737 11.74 15.1409 11.726 15.1085C11.7189 15.0916 11.7114 15.0749 11.7046 15.0576C11.6882 15.0172 11.6724 14.9761 11.6573 14.9347C11.654 14.9258 11.6504 14.9169 11.6472 14.9077C11.6293 14.8571 11.6123 14.8062 11.5966 14.7547C11.5921 14.7396 11.5879 14.7244 11.5835 14.7092C11.5754 14.6815 11.5677 14.6533 11.5603 14.625H18.2521C18.2447 14.6533 18.2369 14.6812 18.2289 14.7092C18.2244 14.7244 18.2206 14.7396 18.2158 14.7547ZM6.94324 6.61327C7.06197 6.43057 7.12505 6.21753 7.12505 6.00002V3.37507C7.12505 2.75468 7.62968 2.25005 8.25007 2.25005H30.7499C31.3703 2.25005 31.875 2.75468 31.875 3.37507V6.00002C31.875 6.21753 31.938 6.43057 32.0568 6.61327L35.8017 12.375H3.19803L6.94324 6.61327ZM2.37174 14.625H9.06475C9.05731 14.6533 9.04958 14.6812 9.04154 14.7092C9.03708 14.7244 9.03291 14.7396 9.02845 14.7547C9.01268 14.8062 8.99572 14.8571 8.97787 14.9077C8.97459 14.9169 8.97102 14.9255 8.96775 14.9347C8.95258 14.9761 8.93681 15.0172 8.92044 15.0576C8.9136 15.0749 8.90616 15.0916 8.89902 15.1085C8.88503 15.1409 8.87075 15.1734 8.85587 15.2055C8.84754 15.2237 8.83921 15.2415 8.83058 15.2594C8.8157 15.2906 8.80023 15.3216 8.78416 15.3522C8.77554 15.3692 8.76661 15.3861 8.75768 15.4031C8.73983 15.4367 8.72108 15.4694 8.70204 15.5025C8.6946 15.5153 8.68746 15.5286 8.67973 15.5414C8.65265 15.5867 8.62468 15.6316 8.59582 15.6756C8.59165 15.6816 8.58749 15.6875 8.58362 15.6935C8.55833 15.7313 8.53244 15.7688 8.50596 15.8054C8.49584 15.8194 8.48543 15.833 8.47501 15.847C8.45389 15.8756 8.43217 15.9039 8.41015 15.9318C8.39825 15.9467 8.38634 15.9616 8.37415 15.9762C8.35213 16.0029 8.33011 16.0291 8.3075 16.0553C8.2953 16.0693 8.2831 16.0833 8.2706 16.0973C8.24561 16.1252 8.22002 16.1526 8.19413 16.1797C8.18372 16.1907 8.1736 16.2017 8.16319 16.2121C8.12659 16.2496 8.08939 16.2865 8.05101 16.3222C8.04714 16.3255 8.04327 16.329 8.0397 16.3323C8.00519 16.3645 7.97008 16.3954 7.93437 16.426C7.92158 16.4371 7.90849 16.4475 7.89569 16.4582C7.86832 16.4811 7.84035 16.5034 7.81238 16.5254C7.7975 16.537 7.78233 16.5486 7.76745 16.5599C7.73978 16.5805 7.7121 16.6007 7.68414 16.6206C7.66896 16.6314 7.65379 16.6421 7.63831 16.6528C7.60796 16.6736 7.57702 16.6938 7.54607 16.7138C7.53298 16.7221 7.52019 16.7307 7.5068 16.7388C7.46246 16.7664 7.41753 16.7932 7.37171 16.8188C7.36844 16.8206 7.36517 16.8221 7.36189 16.8239C7.31964 16.8474 7.2765 16.87 7.23306 16.8917C7.21818 16.8991 7.203 16.9063 7.18783 16.9134C7.15569 16.9292 7.12326 16.9444 7.09023 16.959C7.07268 16.9667 7.05512 16.9741 7.03727 16.9819C7.00573 16.995 6.97419 17.0078 6.94205 17.0202C6.9242 17.0274 6.90635 17.0342 6.8885 17.0408C6.85398 17.0536 6.81917 17.0655 6.78436 17.0771C6.76888 17.0821 6.75371 17.0878 6.73794 17.0926C6.68765 17.1086 6.63677 17.1235 6.5853 17.1372C6.58321 17.1378 6.58113 17.1384 6.57905 17.139C6.52966 17.1518 6.47997 17.1634 6.42998 17.1744C6.41331 17.1779 6.39606 17.1809 6.3791 17.1842C6.34339 17.1913 6.30739 17.1982 6.27139 17.2041C6.25175 17.2074 6.23211 17.2104 6.21217 17.2131C6.17766 17.2181 6.14285 17.2226 6.10803 17.2267C6.0881 17.2291 6.06846 17.2312 6.04823 17.2333C6.01103 17.2369 5.97384 17.2395 5.93635 17.2419C5.91879 17.2431 5.90154 17.2446 5.88398 17.2455C5.82923 17.2485 5.77419 17.25 5.71884 17.25C5.64892 17.25 5.5787 17.2473 5.50877 17.2428C5.49598 17.2419 5.48318 17.2413 5.47069 17.2404C5.3237 17.2294 5.17731 17.2095 5.0324 17.1794C5.03091 17.1791 5.02913 17.1788 5.02764 17.1785C4.95444 17.1631 4.88155 17.1452 4.80894 17.125C3.62739 16.7947 2.69428 15.8381 2.37174 14.625ZM5.98366 19.4932C5.99973 19.4926 6.0155 19.492 6.03156 19.4911C6.11577 19.4863 6.19938 19.4798 6.28269 19.4714C6.29876 19.4699 6.31483 19.4682 6.33119 19.4664C6.41659 19.4569 6.50169 19.4464 6.58619 19.4331C6.58946 19.4328 6.59303 19.4319 6.59631 19.4316C6.67873 19.4185 6.76055 19.4033 6.84208 19.3866C6.85666 19.3837 6.87154 19.381 6.88641 19.3777C6.96675 19.3607 7.0462 19.342 7.12534 19.3218C7.14141 19.3176 7.15718 19.3131 7.17325 19.309C7.25388 19.2873 7.33392 19.2646 7.41307 19.2396C7.41902 19.2376 7.42497 19.2355 7.43092 19.2337C7.5068 19.2093 7.58208 19.1831 7.65646 19.1557C7.67015 19.1507 7.68384 19.1462 7.69723 19.1409C7.7728 19.1126 7.84719 19.0825 7.92128 19.051C7.93675 19.0445 7.95222 19.0376 7.96799 19.0308C8.04268 18.998 8.11677 18.9644 8.18967 18.9287C8.1974 18.9248 8.20484 18.921 8.21228 18.9171C8.28191 18.8829 8.35034 18.8472 8.41818 18.81C8.43008 18.8034 8.44228 18.7969 8.45419 18.7904C8.52411 18.7517 8.59284 18.7112 8.66098 18.6695C8.67556 18.6606 8.69014 18.6514 8.70472 18.6422C8.77286 18.5996 8.8404 18.5559 8.90675 18.5107C8.91508 18.5047 8.92342 18.4988 8.93175 18.4931C8.99423 18.4497 9.05612 18.4047 9.11682 18.3589C9.12724 18.3512 9.13765 18.3437 9.14777 18.336C9.21114 18.2875 9.27333 18.2378 9.33463 18.1866C9.34772 18.1756 9.36081 18.1646 9.3739 18.1536C9.4352 18.1018 9.4953 18.0492 9.55421 17.9947C9.56284 17.987 9.57088 17.9792 9.57921 17.9715C9.63485 17.9194 9.6899 17.8665 9.74345 17.812C9.75149 17.804 9.75982 17.7962 9.76756 17.7882C9.82379 17.7308 9.87884 17.6722 9.93269 17.6124C9.944 17.5999 9.95501 17.5874 9.96632 17.5746C10.0196 17.5148 10.0716 17.4538 10.1225 17.3916C10.1303 17.3821 10.1377 17.3722 10.1454 17.3627C10.1939 17.3023 10.2415 17.2413 10.2877 17.1788C10.2933 17.1714 10.299 17.164 10.3046 17.1565C10.3073 17.153 10.31 17.1494 10.3127 17.1458C10.3153 17.1494 10.318 17.1527 10.3207 17.1565C10.3263 17.164 10.332 17.1714 10.3377 17.1788C10.3838 17.2413 10.4314 17.3026 10.4799 17.3627C10.4876 17.3722 10.4951 17.3821 10.5028 17.3916C10.5537 17.4538 10.6057 17.5148 10.659 17.5746C10.6703 17.5874 10.6813 17.5999 10.6926 17.6124C10.7465 17.6722 10.8015 17.7308 10.8578 17.7882C10.8655 17.7962 10.8738 17.804 10.8819 17.812C10.9354 17.8665 10.9902 17.9194 11.0461 17.9715C11.0544 17.9792 11.0628 17.987 11.0711 17.9947C11.13 18.0492 11.1901 18.1018 11.2514 18.1536C11.2642 18.1646 11.2773 18.1756 11.2907 18.1866C11.352 18.2378 11.4142 18.2875 11.4776 18.336C11.4877 18.3437 11.4981 18.3512 11.5085 18.3589C11.5692 18.4047 11.6308 18.4497 11.6936 18.4931C11.7019 18.4988 11.7102 18.5047 11.7186 18.5107C11.7849 18.5559 11.8525 18.5996 11.9206 18.6422C11.9352 18.6514 11.9498 18.6606 11.9643 18.6695C12.0325 18.7112 12.1012 18.7517 12.1711 18.7904C12.183 18.7969 12.1952 18.8034 12.2071 18.81C12.275 18.8472 12.3434 18.8829 12.4127 18.9171C12.4205 18.921 12.4279 18.9248 12.4357 18.9287C12.5086 18.9644 12.5826 18.998 12.6573 19.0308C12.6731 19.0376 12.6886 19.0445 12.704 19.051C12.7778 19.0825 12.8525 19.1126 12.9281 19.1409C12.9415 19.1462 12.9552 19.151 12.9689 19.1557C13.0432 19.1831 13.1185 19.2093 13.1944 19.2337C13.2003 19.2355 13.2063 19.2376 13.2122 19.2396C13.2914 19.2646 13.3714 19.2873 13.4521 19.309C13.4678 19.3131 13.4839 19.3176 13.5 19.3218C13.5791 19.342 13.6586 19.3607 13.7389 19.3777C13.7538 19.381 13.7684 19.3837 13.7832 19.3866C13.8648 19.4033 13.9463 19.4185 14.029 19.4316C14.0323 19.4319 14.0359 19.4328 14.0391 19.4331C14.1236 19.4464 14.2087 19.4569 14.2941 19.4664C14.3105 19.4679 14.3266 19.4699 14.3426 19.4714C14.4259 19.4798 14.5096 19.4863 14.5938 19.4911C14.6098 19.492 14.6256 19.4926 14.6417 19.4932C14.7294 19.4973 14.8178 19.5 14.9065 19.5C14.9954 19.5 15.0835 19.4973 15.1716 19.4932C15.1874 19.4926 15.2034 19.492 15.2192 19.4911C15.3034 19.4863 15.387 19.4798 15.4703 19.4714C15.4867 19.4699 15.5028 19.4682 15.5188 19.4664C15.6045 19.4569 15.6896 19.4464 15.7741 19.4331C15.7774 19.4328 15.7807 19.4319 15.7842 19.4316C15.8667 19.4185 15.9485 19.4033 16.0297 19.3866C16.0446 19.3837 16.0595 19.381 16.0741 19.3777C16.1544 19.3607 16.2341 19.342 16.313 19.3218C16.329 19.3176 16.3451 19.3131 16.3612 19.309C16.4418 19.2873 16.5219 19.2646 16.601 19.2396C16.607 19.2376 16.6126 19.2355 16.6186 19.2337C16.6947 19.2093 16.7697 19.1831 16.8444 19.1557C16.8578 19.1507 16.8715 19.1462 16.8852 19.1409C16.9604 19.1126 17.0351 19.0825 17.1089 19.051C17.1247 19.0445 17.1402 19.0376 17.1556 19.0308C17.2303 18.998 17.3044 18.9644 17.3776 18.9287C17.385 18.9248 17.3928 18.921 17.4002 18.9171C17.4695 18.8829 17.538 18.8472 17.6058 18.81C17.618 18.8034 17.6302 18.7969 17.6421 18.7904C17.7117 18.7517 17.7805 18.7112 17.8486 18.6695C17.8635 18.6606 17.8778 18.6514 17.8927 18.6422C17.9608 18.5996 18.0283 18.5559 18.0947 18.5107C18.103 18.5047 18.1114 18.4988 18.1197 18.4931C18.1822 18.4497 18.2438 18.4047 18.3048 18.3589C18.3149 18.3512 18.3253 18.3437 18.3354 18.336C18.3988 18.2875 18.461 18.2378 18.5226 18.1866C18.5357 18.1756 18.5487 18.1646 18.5618 18.1536C18.6228 18.1018 18.6832 18.0492 18.7421 17.9947C18.7505 17.987 18.7585 17.9792 18.7668 17.9715C18.8228 17.9194 18.8775 17.8665 18.9314 17.812C18.9394 17.804 18.9475 17.7962 18.9555 17.7882C19.0117 17.7308 19.0665 17.6722 19.1203 17.6124C19.1316 17.5999 19.1429 17.5874 19.154 17.5746C19.2072 17.5148 19.2596 17.4538 19.3105 17.3916C19.3179 17.3821 19.3256 17.3722 19.3331 17.3627C19.3816 17.3023 19.4292 17.2413 19.4753 17.1788C19.481 17.1714 19.4869 17.164 19.4923 17.1565C19.4949 17.153 19.4979 17.1494 19.5006 17.1458C19.503 17.1494 19.506 17.1527 19.5086 17.1565C19.514 17.164 19.5199 17.1714 19.5256 17.1788C19.5717 17.2413 19.619 17.3026 19.6678 17.3627C19.6753 17.3722 19.683 17.3821 19.6904 17.3916C19.7413 17.4538 19.7937 17.5148 19.8469 17.5746C19.8579 17.5874 19.8693 17.5999 19.8806 17.6124C19.9344 17.6722 19.9892 17.7308 20.0454 17.7882C20.0534 17.7962 20.0615 17.804 20.0695 17.812C20.1234 17.8665 20.1781 17.9194 20.234 17.9715C20.2424 17.9792 20.2504 17.987 20.2587 17.9947C20.3177 18.0492 20.3781 18.1018 20.4391 18.1536L20.4783 18.1866C20.5396 18.2378 20.6021 18.2875 20.6655 18.336C20.6756 18.3437 20.686 18.3512 20.6961 18.3589C20.7571 18.4047 20.8187 18.4497 20.8812 18.4931C20.8898 18.4988 20.8979 18.5047 20.9062 18.5107C20.9726 18.5559 21.0401 18.5996 21.1082 18.6422C21.1231 18.6514 21.1377 18.6606 21.1523 18.6695C21.2201 18.7112 21.2888 18.7517 21.3588 18.7904C21.3707 18.7969 21.3829 18.8034 21.3951 18.81C21.4629 18.8472 21.5313 18.8829 21.6007 18.9171C21.6081 18.921 21.6159 18.9248 21.6233 18.9287C21.6965 18.9644 21.7706 18.998 21.8453 19.0308C21.8607 19.0376 21.8762 19.0445 21.892 19.051C21.9658 19.0825 22.0405 19.1126 22.1157 19.1409C22.1294 19.1462 22.1431 19.151 22.1565 19.1557C22.2312 19.1831 22.3062 19.2093 22.3823 19.2337C22.3883 19.2355 22.3942 19.2376 22.3999 19.2396C22.479 19.2646 22.5591 19.2873 22.6397 19.309C22.6558 19.3131 22.6715 19.3176 22.6879 19.3218C22.7668 19.342 22.8465 19.3607 22.9268 19.3777C22.9414 19.381 22.9563 19.3837 22.9712 19.3866C23.0524 19.4033 23.1342 19.4185 23.2167 19.4316C23.2202 19.4319 23.2235 19.4328 23.2268 19.4331C23.3113 19.4464 23.3964 19.4569 23.4821 19.4664C23.4981 19.4679 23.5142 19.4699 23.5306 19.4714C23.6139 19.4798 23.6975 19.4863 23.7817 19.4911C23.7975 19.492 23.8135 19.4926 23.8293 19.4932C23.9174 19.4973 24.0054 19.5 24.0944 19.5C24.1831 19.5 24.2715 19.4973 24.3592 19.4932C24.3753 19.4926 24.3911 19.492 24.4071 19.4911C24.4913 19.4863 24.575 19.4798 24.6583 19.4714C24.6743 19.4699 24.6904 19.4682 24.7068 19.4664C24.7922 19.4569 24.8776 19.4464 24.9618 19.4331C24.965 19.4328 24.9686 19.4319 24.9719 19.4316C25.0543 19.4185 25.1361 19.4033 25.2177 19.3866C25.2325 19.3837 25.2471 19.381 25.262 19.3777C25.3423 19.3607 25.4221 19.342 25.5009 19.3218C25.517 19.3176 25.5331 19.3131 25.5491 19.309C25.6295 19.2873 25.7095 19.2646 25.7886 19.2396C25.7946 19.2376 25.8005 19.2355 25.8065 19.2337C25.8824 19.2093 25.9576 19.1831 26.032 19.1557C26.0457 19.1507 26.0594 19.1462 26.0728 19.1409C26.1484 19.1126 26.2231 19.0825 26.2969 19.051C26.3123 19.0445 26.3278 19.0376 26.3436 19.0308C26.4183 18.998 26.4923 18.9644 26.5652 18.9287C26.573 18.9248 26.5804 18.921 26.5882 18.9171C26.6575 18.8829 26.7259 18.8472 26.7938 18.81C26.8057 18.8034 26.8179 18.7969 26.8298 18.7904C26.8997 18.7517 26.9684 18.7112 27.0366 18.6695C27.0511 18.6606 27.0657 18.6514 27.0803 18.6422C27.1484 18.5996 27.216 18.5559 27.2823 18.5107C27.2907 18.5047 27.299 18.4988 27.3073 18.4931C27.3701 18.4497 27.4317 18.4047 27.4924 18.3589C27.5028 18.3512 27.5132 18.3437 27.5233 18.336C27.5867 18.2875 27.6489 18.2378 27.7102 18.1866C27.7236 18.1756 27.7364 18.1646 27.7498 18.1536C27.8108 18.1018 27.8709 18.0492 27.9298 17.9947C27.9384 17.987 27.9464 17.9792 27.9548 17.9715C28.0104 17.9194 28.0655 17.8665 28.119 17.812C28.1271 17.804 28.1354 17.7962 28.1431 17.7882C28.1994 17.7308 28.2544 17.6722 28.3083 17.6124C28.3196 17.5999 28.3306 17.5874 28.3419 17.5746C28.3951 17.5148 28.4472 17.4538 28.4981 17.3916C28.5058 17.3821 28.5133 17.3722 28.521 17.3627C28.5695 17.3023 28.6171 17.2413 28.6632 17.1788C28.6689 17.1714 28.6745 17.164 28.6802 17.1565C28.6829 17.153 28.6856 17.1494 28.6882 17.1458C28.6909 17.1494 28.6936 17.1527 28.6963 17.1565C28.7019 17.164 28.7076 17.1714 28.7132 17.1788C28.7596 17.2413 28.807 17.3026 28.8555 17.3627C28.8632 17.3722 28.8706 17.3821 28.8784 17.3916C28.9292 17.4538 28.9813 17.5148 29.0346 17.5746C29.0459 17.5874 29.0569 17.5999 29.0685 17.6124C29.1221 17.6722 29.1771 17.7308 29.2333 17.7882C29.2414 17.7962 29.2494 17.804 29.2574 17.812C29.311 17.8665 29.3657 17.9194 29.4217 17.9715C29.43 17.9792 29.4383 17.987 29.4467 17.9947C29.5056 18.0492 29.5657 18.1018 29.627 18.1536C29.6398 18.1646 29.6532 18.1756 29.6663 18.1866C29.7276 18.2378 29.7897 18.2875 29.8531 18.336C29.8632 18.3437 29.8737 18.3512 29.8841 18.3589C29.9448 18.4047 30.0067 18.4497 30.0691 18.4931C30.0775 18.4988 30.0858 18.5047 30.0941 18.5107C30.1605 18.5559 30.228 18.5996 30.2962 18.6422C30.3108 18.6514 30.3253 18.6606 30.3399 18.6695C30.4081 18.7112 30.4768 18.7517 30.5467 18.7904C30.5586 18.7969 30.5708 18.8034 30.5827 18.81C30.6506 18.8472 30.719 18.8829 30.7886 18.9171C30.7961 18.921 30.8035 18.9248 30.8112 18.9287C30.8841 18.9644 30.9582 18.998 31.0332 19.0308C31.0487 19.0376 31.0641 19.0445 31.0796 19.051C31.1537 19.0825 31.2281 19.1126 31.3037 19.1409C31.3171 19.1462 31.3307 19.151 31.3444 19.1557C31.4188 19.1831 31.4941 19.2093 31.57 19.2337C31.5759 19.2355 31.5819 19.2376 31.5878 19.2396C31.667 19.2646 31.747 19.2873 31.8276 19.309C31.8437 19.3131 31.8595 19.3176 31.8755 19.3218C31.9547 19.342 32.0344 19.3607 32.1145 19.3777C32.1294 19.381 32.1442 19.3837 32.1588 19.3866C32.2403 19.4033 32.3219 19.4185 32.4046 19.4316C32.4079 19.4319 32.4114 19.4328 32.4147 19.4331C32.4992 19.4464 32.5843 19.4569 32.67 19.4664C32.6861 19.4679 32.7021 19.4699 32.7182 19.4714C32.8015 19.4798 32.8851 19.4863 32.9693 19.4911C32.9854 19.492 33.0012 19.4926 33.0172 19.4932C33.105 19.4973 33.1934 19.5 33.2821 19.5C33.3133 19.5 33.3445 19.4997 33.3758 19.4991V31.875H18.375V24.7499C18.375 22.8891 16.8611 21.3751 14.9999 21.3751H12C10.1389 21.3751 8.62498 22.8891 8.62498 24.7499V31.875H5.62511V19.4991C5.65636 19.4997 5.6876 19.5 5.71884 19.5C5.80751 19.5 5.89588 19.4973 5.98366 19.4932ZM16.1249 31.875H10.875V24.7499C10.875 24.1298 11.3797 23.6249 12 23.6249H14.9999C15.6203 23.6249 16.1249 24.1298 16.1249 24.7499V31.875ZM35.4375 36.75H3.56252C2.83889 36.75 2.25005 36.1611 2.25005 35.4375C2.25005 34.7138 2.83889 34.125 3.56252 34.125H35.4375C36.1611 34.125 36.75 34.7138 36.75 35.4375C36.75 36.1611 36.1611 36.75 35.4375 36.75Z" fill="white"/>
<path d="M24.0001 28.1251H26.9999C28.8611 28.1251 30.375 26.6112 30.375 24.75C30.375 22.8892 28.8611 21.3752 26.9999 21.3752H24.0001C22.1389 21.3752 20.625 22.8892 20.625 24.75C20.625 26.6112 22.1389 28.1251 24.0001 28.1251ZM24.0001 23.625H26.9999C27.6203 23.625 28.125 24.1299 28.125 24.75C28.125 25.3704 27.6203 25.875 26.9999 25.875H24.0001C23.3797 25.875 22.875 25.3704 22.875 24.75C22.875 24.1299 23.3797 23.625 24.0001 23.625Z" fill="white"/>
<path d="M30.375 6.00002C30.375 5.37875 29.8713 4.875 29.25 4.875H9.75002C9.12875 4.875 8.625 5.37875 8.625 6.00002C8.625 6.6213 9.12875 7.12505 9.75002 7.12505H29.25C29.8713 7.12505 30.375 6.6213 30.375 6.00002Z" fill="white"/>
</g>
<defs>
<clipPath id="clip0_286_7300">
<rect width="39" height="39" fill="white"/>
</clipPath>
</defs>
</svg>
